<svg xmlns="http://www.w3.org/2000/svg" xmlns:xlink="http://www.w3.org/1999/xlink" width="62" zoomAndPan="magnify" viewBox="0 0 46.5 46.5" height="62" preserveAspectRatio="xMidYMid meet" version="1.0"><defs><clipPath id="e94c218d58"><path d="M 0 7.535156 L 46.003906 7.535156 L 46.003906 38.699219 L 0 38.699219 Z M 0 7.535156 " clip-rule="nonzero"/></clipPath></defs><g clip-path="url(#e94c218d58)"><path fill="#ffffff" d="M 16.011719 16.476562 C 16.011719 16.175781 16.046875 15.609375 16.769531 15.191406 C 17.410156 14.820312 18.695312 14.527344 19.480469 14.964844 L 31.027344 21.242188 C 31.617188 21.582031 32.253906 22.300781 32.246094 23.074219 C 32.242188 23.582031 31.96875 24.03125 31.515625 24.277344 L 31.484375 24.292969 L 19.457031 30.25 C 19.1875 30.390625 18.875 30.445312 18.53125 30.445312 C 17.851562 30.445312 17.15625 30.226562 16.742188 29.980469 C 16.046875 29.5625 16.011719 29.007812 16.011719 28.710938 Z M 9.449219 38.457031 L 36.316406 38.457031 C 41.542969 38.457031 46.003906 33.917969 46.003906 28.6875 L 46.003906 16.1875 C 46.003906 10.960938 41.542969 7.542969 36.316406 7.542969 L 9.449219 7.542969 C 4.222656 7.542969 0 10.960938 0 16.1875 L 0 28.6875 C 0 33.917969 4.222656 38.457031 9.449219 38.457031 " fill-opacity="1" fill-rule="nonzero"/></g></svg>