<svg xmlns="http://www.w3.org/2000/svg" xmlns:xlink="http://www.w3.org/1999/xlink" width="62" zoomAndPan="magnify" viewBox="0 0 46.5 46.5" height="62" preserveAspectRatio="xMidYMid meet" version="1.0"><defs><clipPath id="392233706b"><path d="M 1.929688 1.929688 L 44.226562 1.929688 L 44.226562 44.226562 L 1.929688 44.226562 Z M 1.929688 1.929688 " clip-rule="nonzero"/></clipPath></defs><g clip-path="url(#392233706b)"><path fill="#ffffff" d="M 14.316406 2.078125 C 12.066406 2.183594 10.53125 2.542969 9.1875 3.070312 C 7.796875 3.609375 6.617188 4.335938 5.449219 5.511719 C 4.273438 6.691406 3.554688 7.871094 3.015625 9.261719 C 2.496094 10.609375 2.144531 12.144531 2.042969 14.398438 C 1.945312 16.648438 1.921875 17.367188 1.933594 23.109375 C 1.941406 28.851562 1.96875 29.570312 2.078125 31.828125 C 2.183594 34.074219 2.542969 35.609375 3.070312 36.953125 C 3.609375 38.34375 4.335938 39.519531 5.511719 40.695312 C 6.691406 41.867188 7.871094 42.585938 9.261719 43.125 C 10.605469 43.644531 12.144531 44 14.394531 44.097656 C 16.648438 44.195312 17.367188 44.21875 23.109375 44.207031 C 28.851562 44.195312 29.570312 44.171875 31.824219 44.0625 C 34.074219 43.957031 35.609375 43.59375 36.953125 43.070312 C 38.34375 42.527344 39.519531 41.804688 40.691406 40.625 C 41.863281 39.449219 42.585938 38.269531 43.121094 36.878906 C 43.644531 35.53125 43.996094 33.996094 44.09375 31.746094 C 44.191406 29.492188 44.214844 28.769531 44.207031 23.03125 C 44.195312 17.292969 44.167969 16.570312 44.0625 14.316406 C 43.957031 12.066406 43.597656 10.53125 43.070312 9.1875 C 42.527344 7.796875 41.804688 6.621094 40.625 5.449219 C 39.449219 4.277344 38.269531 3.554688 36.878906 3.015625 C 35.53125 2.496094 33.996094 2.140625 31.746094 2.042969 C 29.488281 1.945312 28.769531 1.921875 23.027344 1.933594 C 17.289062 1.941406 16.570312 1.96875 14.316406 2.078125 M 14.5625 40.289062 C 12.503906 40.199219 11.382812 39.859375 10.636719 39.570312 C 9.648438 39.1875 8.945312 38.730469 8.199219 37.996094 C 7.460938 37.253906 7 36.550781 6.613281 35.566406 C 6.324219 34.824219 5.976562 33.707031 5.878906 31.644531 C 5.773438 29.417969 5.75 28.746094 5.742188 23.101562 C 5.730469 17.460938 5.75 16.792969 5.847656 14.5625 C 5.9375 12.503906 6.28125 11.382812 6.566406 10.636719 C 6.949219 9.648438 7.40625 8.945312 8.144531 8.203125 C 8.882812 7.460938 9.585938 7.003906 10.570312 6.617188 C 11.316406 6.324219 12.433594 5.980469 14.496094 5.882812 C 16.722656 5.777344 17.390625 5.753906 23.035156 5.742188 C 28.679688 5.730469 29.347656 5.75 31.578125 5.851562 C 33.636719 5.941406 34.757812 6.28125 35.503906 6.570312 C 36.492188 6.953125 37.195312 7.40625 37.9375 8.144531 C 38.679688 8.882812 39.136719 9.585938 39.523438 10.574219 C 39.8125 11.316406 40.160156 12.4375 40.257812 14.496094 C 40.363281 16.722656 40.386719 17.394531 40.398438 23.035156 C 40.40625 28.679688 40.386719 29.347656 40.289062 31.574219 C 40.199219 33.636719 39.859375 34.757812 39.570312 35.503906 C 39.1875 36.488281 38.730469 37.195312 37.992188 37.933594 C 37.253906 38.675781 36.550781 39.132812 35.5625 39.519531 C 34.820312 39.8125 33.703125 40.160156 31.644531 40.257812 C 29.414062 40.363281 28.746094 40.386719 23.101562 40.394531 C 17.457031 40.40625 16.789062 40.386719 14.558594 40.289062 M 31.792969 11.769531 C 31.796875 13.171875 32.9375 14.304688 34.335938 14.300781 C 35.734375 14.300781 36.867188 13.160156 36.867188 11.761719 C 36.863281 10.359375 35.726562 9.226562 34.324219 9.230469 C 32.925781 9.230469 31.789062 10.371094 31.792969 11.769531 M 12.214844 23.089844 C 12.226562 29.085938 17.097656 33.933594 23.089844 33.921875 C 29.082031 33.910156 33.933594 29.042969 33.921875 23.050781 C 33.910156 17.054688 29.042969 12.207031 23.046875 12.214844 C 17.054688 12.226562 12.203125 17.097656 12.214844 23.089844 M 16.023438 23.082031 C 16.015625 19.191406 19.164062 16.03125 23.054688 16.023438 C 26.945312 16.015625 30.105469 19.164062 30.117188 23.058594 C 30.125 26.949219 26.972656 30.109375 23.082031 30.117188 C 19.191406 30.125 16.03125 26.972656 16.023438 23.082031 " fill-opacity="1" fill-rule="nonzero"/></g></svg>