<svg xmlns="http://www.w3.org/2000/svg" xmlns:xlink="http://www.w3.org/1999/xlink" width="62" zoomAndPan="magnify" viewBox="0 0 46.5 46.5" height="62" preserveAspectRatio="xMidYMid meet" version="1.0"><defs><clipPath id="770323b280"><path d="M 0 3.386719 L 39 3.386719 L 39 42.714844 L 0 42.714844 Z M 0 3.386719 " clip-rule="nonzero"/></clipPath><clipPath id="187cdeb137"><path d="M 40 37 L 46 37 L 46 42.714844 L 40 42.714844 Z M 40 37 " clip-rule="nonzero"/></clipPath></defs><path fill="#ffffff" d="M 43.734375 40.101562 C 44.128906 40.105469 44.457031 39.785156 44.460938 39.390625 C 44.460938 39.371094 44.460938 39.355469 44.460938 39.339844 C 44.460938 38.796875 44.132812 38.539062 43.464844 38.539062 L 42.386719 38.539062 L 42.386719 41.367188 L 42.792969 41.367188 L 42.792969 40.132812 L 43.289062 40.132812 L 43.300781 40.148438 L 44.078125 41.367188 L 44.511719 41.367188 L 43.675781 40.105469 L 43.734375 40.097656 Z M 43.261719 39.816406 L 42.792969 39.816406 L 42.792969 38.859375 L 43.390625 38.859375 C 43.699219 38.859375 44.050781 38.914062 44.050781 39.316406 C 44.050781 39.777344 43.695312 39.816406 43.261719 39.816406 " fill-opacity="1" fill-rule="nonzero"/><g clip-path="url(#770323b280)"><path fill="#ffffff" d="M 33.132812 36.558594 L 27.371094 36.558594 L 27.371094 27.535156 C 27.371094 25.382812 27.332031 22.613281 24.375 22.613281 C 21.414062 22.613281 20.914062 24.957031 20.914062 27.378906 L 20.914062 36.558594 L 15.152344 36.558594 L 15.152344 18 L 20.683594 18 L 20.683594 20.539062 L 20.757812 20.539062 C 21.886719 18.609375 23.984375 17.457031 26.21875 17.539062 C 32.058594 17.539062 33.136719 21.382812 33.136719 26.378906 L 33.136719 36.558594 Z M 8.652344 15.464844 C 6.804688 15.464844 5.308594 13.96875 5.304688 12.121094 C 5.304688 10.273438 6.800781 8.777344 8.648438 8.777344 C 10.496094 8.777344 11.992188 10.273438 11.996094 12.117188 C 11.996094 13.964844 10.5 15.460938 8.652344 15.464844 M 11.53125 36.558594 L 5.765625 36.558594 L 5.765625 18 L 11.53125 18 Z M 36.003906 3.425781 L 2.871094 3.425781 C 1.304688 3.410156 0.0195312 4.664062 0 6.230469 L 0 39.503906 C 0.0195312 41.070312 1.304688 42.328125 2.871094 42.308594 L 36.007812 42.308594 C 37.578125 42.332031 38.867188 41.074219 38.886719 39.503906 L 38.886719 6.226562 C 38.863281 4.65625 37.574219 3.402344 36.003906 3.425781 " fill-opacity="1" fill-rule="nonzero"/></g><g clip-path="url(#187cdeb137)"><path fill="#ffffff" d="M 43.3125 37.28125 C 41.847656 37.296875 40.671875 38.496094 40.6875 39.957031 C 40.699219 41.421875 41.898438 42.597656 43.363281 42.585938 C 44.828125 42.570312 46.003906 41.371094 45.992188 39.90625 C 45.976562 38.464844 44.808594 37.296875 43.363281 37.28125 L 43.3125 37.28125 M 43.3125 42.28125 C 42.027344 42.304688 40.96875 41.277344 40.949219 39.996094 C 40.925781 38.710938 41.949219 37.652344 43.234375 37.632812 C 44.519531 37.609375 45.578125 38.632812 45.597656 39.917969 L 45.597656 39.953125 C 45.625 41.210938 44.628906 42.25 43.375 42.277344 L 43.3125 42.277344 " fill-opacity="1" fill-rule="nonzero"/></g></svg>