<svg xmlns="http://www.w3.org/2000/svg" xmlns:xlink="http://www.w3.org/1999/xlink" width="62" zoomAndPan="magnify" viewBox="0 0 46.5 46.5" height="62" preserveAspectRatio="xMidYMid meet" version="1.0"><defs><clipPath id="9908552806"><path d="M 0 5.980469 L 46 5.980469 L 46 40.113281 L 0 40.113281 Z M 0 5.980469 " clip-rule="nonzero"/></clipPath></defs><g clip-path="url(#9908552806)"><path fill="#ffffff" d="M 38.398438 8.8125 C 38.421875 8.820312 38.441406 8.839844 38.453125 8.863281 C 43.492188 16.277344 45.980469 24.640625 45.050781 34.269531 C 45.046875 34.308594 45.027344 34.34375 44.992188 34.371094 C 41.175781 37.175781 37.480469 38.875 33.835938 40.003906 C 33.777344 40.023438 33.714844 40 33.679688 39.949219 C 32.835938 38.78125 32.070312 37.542969 31.398438 36.246094 C 31.363281 36.167969 31.398438 36.078125 31.476562 36.046875 C 32.691406 35.585938 33.847656 35.039062 34.957031 34.390625 C 35.046875 34.339844 35.050781 34.210938 34.96875 34.152344 C 34.734375 33.976562 34.5 33.792969 34.277344 33.609375 C 34.234375 33.574219 34.179688 33.566406 34.132812 33.589844 C 26.914062 36.925781 19.011719 36.925781 11.707031 33.589844 C 11.660156 33.570312 11.601562 33.574219 11.5625 33.609375 C 11.339844 33.792969 11.105469 33.976562 10.871094 34.152344 C 10.792969 34.210938 10.796875 34.339844 10.886719 34.390625 C 11.996094 35.027344 13.152344 35.585938 14.367188 36.046875 C 14.445312 36.078125 14.484375 36.167969 14.445312 36.246094 C 13.789062 37.546875 13.023438 38.78125 12.164062 39.953125 C 12.128906 40 12.066406 40.023438 12.007812 40.003906 C 8.378906 38.875 4.683594 37.175781 0.867188 34.371094 C 0.835938 34.34375 0.8125 34.308594 0.808594 34.265625 C 0.03125 25.9375 1.617188 17.507812 7.398438 8.863281 C 7.414062 8.839844 7.433594 8.820312 7.460938 8.8125 C 10.304688 7.503906 13.355469 6.542969 16.542969 5.996094 C 16.601562 5.984375 16.660156 6.011719 16.6875 6.0625 C 17.082031 6.761719 17.53125 7.65625 17.835938 8.386719 C 21.195312 7.875 24.609375 7.875 28.039062 8.386719 C 28.34375 7.671875 28.777344 6.761719 29.167969 6.0625 C 29.199219 6.011719 29.257812 5.984375 29.316406 5.996094 C 32.503906 6.546875 35.550781 7.507812 38.398438 8.8125 Z M 15.535156 29.195312 C 17.769531 29.195312 19.542969 27.175781 19.542969 24.699219 C 19.578125 22.238281 17.785156 20.199219 15.535156 20.199219 C 13.300781 20.199219 11.523438 22.21875 11.523438 24.699219 C 11.523438 27.175781 13.335938 29.195312 15.535156 29.195312 Z M 30.359375 29.195312 C 32.613281 29.195312 34.371094 27.175781 34.371094 24.699219 C 34.40625 22.238281 32.613281 20.199219 30.359375 20.199219 C 28.128906 20.199219 26.351562 22.21875 26.351562 24.699219 C 26.351562 27.175781 28.160156 29.195312 30.359375 29.195312 Z M 30.359375 29.195312 " fill-opacity="1" fill-rule="evenodd"/></g></svg>