<svg xmlns="http://www.w3.org/2000/svg" xmlns:xlink="http://www.w3.org/1999/xlink" width="62" zoomAndPan="magnify" viewBox="0 0 46.5 46.5" height="62" preserveAspectRatio="xMidYMid meet" version="1.0"><defs><clipPath id="58157e5df4"><path d="M 1.5 1.382812 L 44.539062 1.382812 L 44.539062 44.421875 L 1.5 44.421875 Z M 1.5 1.382812 " clip-rule="nonzero"/></clipPath></defs><g clip-path="url(#58157e5df4)"><path fill="#ffffff" d="M 38.222656 7.6875 C 34.183594 3.640625 28.8125 1.410156 23.085938 1.410156 C 11.289062 1.410156 1.6875 11.007812 1.679688 22.8125 C 1.679688 26.582031 2.664062 30.265625 4.539062 33.511719 L 1.5 44.601562 L 12.847656 41.625 C 15.976562 43.332031 19.496094 44.226562 23.078125 44.230469 L 23.085938 44.230469 C 34.878906 44.230469 44.484375 34.628906 44.488281 22.828125 C 44.488281 17.109375 42.265625 11.734375 38.222656 7.6875 Z M 23.085938 40.617188 L 23.078125 40.617188 C 19.886719 40.617188 16.753906 39.757812 14.023438 38.136719 L 13.375 37.75 L 6.640625 39.515625 L 8.4375 32.953125 L 8.011719 32.277344 C 6.230469 29.445312 5.292969 26.171875 5.292969 22.8125 C 5.300781 13.003906 13.28125 5.023438 23.089844 5.023438 C 27.84375 5.023438 32.308594 6.875 35.667969 10.242188 C 39.027344 13.601562 40.875 18.070312 40.871094 22.824219 C 40.867188 32.636719 32.886719 40.617188 23.082031 40.617188 Z M 32.84375 27.292969 C 32.308594 27.027344 29.679688 25.734375 29.1875 25.554688 C 28.699219 25.375 28.34375 25.289062 27.984375 25.824219 C 27.628906 26.359375 26.605469 27.5625 26.292969 27.917969 C 25.980469 28.277344 25.667969 28.320312 25.132812 28.050781 C 24.597656 27.785156 22.875 27.21875 20.832031 25.398438 C 19.242188 23.980469 18.167969 22.226562 17.855469 21.691406 C 17.546875 21.15625 17.824219 20.867188 18.089844 20.601562 C 18.332031 20.363281 18.625 19.976562 18.894531 19.664062 C 19.160156 19.351562 19.25 19.128906 19.429688 18.769531 C 19.609375 18.414062 19.519531 18.101562 19.382812 17.832031 C 19.25 17.566406 18.179688 14.933594 17.734375 13.863281 C 17.300781 12.820312 16.859375 12.960938 16.53125 12.945312 C 16.222656 12.929688 15.863281 12.925781 15.507812 12.925781 C 15.152344 12.925781 14.570312 13.058594 14.082031 13.59375 C 13.589844 14.128906 12.210938 15.421875 12.210938 18.054688 C 12.210938 20.6875 14.125 23.230469 14.394531 23.589844 C 14.660156 23.945312 18.167969 29.347656 23.53125 31.664062 C 24.804688 32.214844 25.804688 32.542969 26.582031 32.789062 C 27.863281 33.199219 29.027344 33.140625 29.949219 33.003906 C 30.976562 32.847656 33.113281 31.707031 33.558594 30.457031 C 34.003906 29.210938 34.003906 28.140625 33.871094 27.914062 C 33.734375 27.691406 33.378906 27.558594 32.84375 27.289062 Z M 32.84375 27.292969 " fill-opacity="1" fill-rule="evenodd"/></g></svg>