<svg xmlns="http://www.w3.org/2000/svg" xmlns:xlink="http://www.w3.org/1999/xlink" width="62" zoomAndPan="magnify" viewBox="0 0 46.5 46.5" height="62" preserveAspectRatio="xMidYMid meet" version="1.0"><defs><clipPath id="cb019c27f4"><path d="M 3.4375 0.0078125 L 42.761719 0.0078125 L 42.761719 46 L 3.4375 46 Z M 3.4375 0.0078125 " clip-rule="nonzero"/></clipPath></defs><path fill="#000000" d="M 39.289062 21.355469 L 32.773438 27.925781 L 26.257812 27.925781 L 20.554688 33.671875 L 20.554688 27.925781 L 13.226562 27.925781 L 13.226562 3.289062 L 39.289062 3.289062 Z M 39.289062 21.355469 " fill-opacity="1" fill-rule="nonzero"/><g clip-path="url(#cb019c27f4)"><path fill="#ffffff" d="M 11.597656 0.0078125 L 42.546875 0.0078125 L 42.546875 23 L 27.886719 37.78125 L 21.371094 37.78125 L 13.226562 45.992188 L 13.226562 37.78125 L 3.449219 37.78125 L 3.449219 8.21875 Z M 39.289062 21.355469 L 39.289062 3.289062 L 13.226562 3.289062 L 13.226562 27.925781 L 20.554688 27.925781 L 20.554688 33.671875 L 26.257812 27.925781 L 32.773438 27.925781 Z M 22.183594 9.039062 L 25.441406 9.039062 L 25.441406 18.890625 L 22.183594 18.890625 Z M 31.144531 9.039062 L 34.402344 9.039062 L 34.402344 18.890625 L 31.144531 18.890625 Z M 31.144531 9.039062 " fill-opacity="1" fill-rule="evenodd"/></g></svg>