<svg xmlns="http://www.w3.org/2000/svg" xmlns:xlink="http://www.w3.org/1999/xlink" width="62" zoomAndPan="magnify" viewBox="0 0 46.5 46.5" height="62" preserveAspectRatio="xMidYMid meet" version="1.0"><defs><clipPath id="e4eb43ca63"><path d="M 1.929688 1.929688 L 44.226562 1.929688 L 44.226562 44.226562 L 1.929688 44.226562 Z M 1.929688 1.929688 " clip-rule="nonzero"/></clipPath></defs><g clip-path="url(#e4eb43ca63)"><path fill="#ffffff" d="M 44.070312 23 C 44.070312 23.691406 44.039062 24.378906 43.96875 25.066406 C 43.902344 25.753906 43.800781 26.433594 43.667969 27.113281 C 43.53125 27.789062 43.363281 28.457031 43.164062 29.117188 C 42.964844 29.777344 42.730469 30.425781 42.46875 31.066406 C 42.203125 31.703125 41.910156 32.324219 41.582031 32.933594 C 41.257812 33.542969 40.902344 34.132812 40.519531 34.707031 C 40.136719 35.28125 39.726562 35.835938 39.289062 36.367188 C 38.851562 36.902344 38.386719 37.414062 37.898438 37.898438 C 37.414062 38.386719 36.902344 38.851562 36.367188 39.289062 C 35.835938 39.726562 35.28125 40.136719 34.707031 40.519531 C 34.132812 40.902344 33.542969 41.257812 32.933594 41.582031 C 32.324219 41.910156 31.703125 42.203125 31.066406 42.46875 C 30.425781 42.730469 29.777344 42.964844 29.117188 43.164062 C 28.457031 43.363281 27.789062 43.53125 27.113281 43.667969 C 26.433594 43.800781 25.753906 43.902344 25.066406 43.96875 C 24.378906 44.039062 23.691406 44.070312 23 44.070312 C 22.3125 44.070312 21.621094 44.039062 20.9375 43.96875 C 20.25 43.902344 19.566406 43.800781 18.890625 43.667969 C 18.214844 43.53125 17.546875 43.363281 16.886719 43.164062 C 16.226562 42.964844 15.574219 42.730469 14.9375 42.46875 C 14.300781 42.203125 13.675781 41.910156 13.070312 41.582031 C 12.460938 41.257812 11.871094 40.902344 11.296875 40.519531 C 10.722656 40.136719 10.167969 39.726562 9.632812 39.289062 C 9.101562 38.851562 8.589844 38.386719 8.101562 37.898438 C 7.613281 37.414062 7.152344 36.902344 6.714844 36.367188 C 6.277344 35.835938 5.867188 35.28125 5.480469 34.707031 C 5.097656 34.132812 4.746094 33.542969 4.417969 32.933594 C 4.09375 32.324219 3.800781 31.703125 3.535156 31.066406 C 3.269531 30.425781 3.039062 29.777344 2.839844 29.117188 C 2.636719 28.457031 2.46875 27.789062 2.335938 27.113281 C 2.203125 26.433594 2.101562 25.753906 2.03125 25.066406 C 1.964844 24.378906 1.929688 23.691406 1.929688 23 C 1.929688 22.3125 1.964844 21.621094 2.03125 20.9375 C 2.101562 20.25 2.203125 19.566406 2.335938 18.890625 C 2.46875 18.214844 2.636719 17.546875 2.839844 16.886719 C 3.039062 16.226562 3.269531 15.574219 3.535156 14.9375 C 3.800781 14.300781 4.09375 13.675781 4.417969 13.070312 C 4.746094 12.460938 5.097656 11.871094 5.480469 11.296875 C 5.867188 10.722656 6.277344 10.167969 6.714844 9.632812 C 7.152344 9.101562 7.613281 8.589844 8.101562 8.101562 C 8.589844 7.613281 9.101562 7.152344 9.632812 6.714844 C 10.167969 6.277344 10.722656 5.867188 11.296875 5.480469 C 11.871094 5.097656 12.460938 4.746094 13.070312 4.417969 C 13.675781 4.09375 14.300781 3.800781 14.9375 3.535156 C 15.574219 3.269531 16.226562 3.039062 16.886719 2.839844 C 17.546875 2.636719 18.214844 2.46875 18.890625 2.335938 C 19.566406 2.203125 20.25 2.101562 20.9375 2.03125 C 21.621094 1.964844 22.3125 1.929688 23 1.929688 C 23.691406 1.929688 24.378906 1.964844 25.066406 2.03125 C 25.753906 2.101562 26.433594 2.203125 27.113281 2.335938 C 27.789062 2.46875 28.457031 2.636719 29.117188 2.839844 C 29.777344 3.039062 30.425781 3.269531 31.066406 3.535156 C 31.703125 3.800781 32.324219 4.09375 32.933594 4.417969 C 33.542969 4.746094 34.132812 5.097656 34.707031 5.480469 C 35.28125 5.867188 35.835938 6.277344 36.367188 6.714844 C 36.902344 7.152344 37.414062 7.613281 37.898438 8.101562 C 38.386719 8.589844 38.851562 9.101562 39.289062 9.632812 C 39.726562 10.167969 40.136719 10.722656 40.519531 11.296875 C 40.902344 11.871094 41.257812 12.460938 41.582031 13.070312 C 41.910156 13.675781 42.203125 14.300781 42.46875 14.9375 C 42.730469 15.574219 42.964844 16.226562 43.164062 16.886719 C 43.363281 17.546875 43.53125 18.214844 43.667969 18.890625 C 43.800781 19.566406 43.902344 20.25 43.96875 20.9375 C 44.039062 21.621094 44.070312 22.3125 44.070312 23 Z M 44.070312 23 " fill-opacity="1" fill-rule="nonzero"/></g><path fill="#d9d9d9" d="M 20.203125 19.988281 L 20.203125 18.847656 C 19.820312 18.792969 19.433594 18.761719 19.035156 18.761719 C 14.25 18.761719 10.359375 22.652344 10.359375 27.4375 C 10.359375 30.371094 11.828125 32.96875 14.0625 34.542969 C 12.621094 32.988281 11.761719 30.914062 11.761719 28.632812 C 11.761719 23.917969 15.515625 20.097656 20.203125 19.988281 Z M 20.203125 19.988281 " fill-opacity="1" fill-rule="nonzero"/><path fill="#d9d9d9" d="M 20.410156 32.621094 C 22.542969 32.621094 24.308594 30.898438 24.386719 28.78125 L 24.40625 9.917969 L 27.828125 9.917969 C 27.828125 9.917969 27.820312 9.890625 27.820312 9.890625 C 27.75 9.503906 27.710938 9.105469 27.710938 8.695312 L 22.996094 8.695312 L 22.988281 27.585938 C 22.910156 29.703125 21.167969 31.398438 19.035156 31.398438 C 18.371094 31.398438 17.746094 31.234375 17.199219 30.945312 C 17.917969 31.941406 19.085938 32.621094 20.410156 32.621094 Z M 20.410156 32.621094 " fill-opacity="1" fill-rule="nonzero"/><path fill="#d9d9d9" d="M 34.269531 16.359375 L 34.269531 15.25 C 32.953125 15.25 31.726562 14.859375 30.699219 14.1875 C 31.613281 15.238281 32.855469 16.054688 34.269531 16.355469 Z M 34.269531 16.359375 " fill-opacity="1" fill-rule="nonzero"/><path fill="#a6a6a6" d="M 30.699219 14.1875 C 29.695312 13.035156 29.085938 11.535156 29.085938 9.890625 L 27.800781 9.890625 C 28.136719 11.6875 29.222656 13.226562 30.699219 14.1875 Z M 30.699219 14.1875 " fill-opacity="1" fill-rule="nonzero"/><path fill="#a6a6a6" d="M 19.035156 23.4375 C 16.851562 23.4375 15.046875 25.25 15.046875 27.433594 C 15.046875 28.957031 15.933594 30.277344 17.195312 30.945312 C 16.726562 30.292969 16.445312 29.496094 16.445312 28.632812 C 16.445312 26.449219 18.222656 24.671875 20.410156 24.671875 C 20.816406 24.671875 21.207031 24.738281 21.578125 24.855469 L 21.578125 20.042969 C 21.195312 19.988281 20.804688 19.957031 20.410156 19.957031 C 20.339844 19.957031 20.273438 19.960938 20.203125 19.964844 L 20.1875 19.964844 C 20.1875 19.964844 20.171875 23.605469 20.171875 23.605469 C 19.800781 23.488281 19.441406 23.4375 19.035156 23.4375 Z M 19.035156 23.4375 " fill-opacity="1" fill-rule="nonzero"/><path fill="#a6a6a6" d="M 34.269531 16.300781 L 34.246094 16.296875 L 34.246094 19.9375 C 31.800781 19.9375 29.53125 19.132812 27.683594 17.804688 L 27.683594 27.433594 C 27.683594 32.21875 23.820312 36.085938 19.035156 36.085938 C 17.1875 36.085938 15.472656 35.527344 14.0625 34.539062 C 15.648438 36.238281 17.90625 37.304688 20.410156 37.304688 C 25.191406 37.304688 29.082031 33.414062 29.082031 28.632812 L 29.082031 19.050781 C 30.933594 20.378906 33.199219 21.160156 35.640625 21.160156 L 35.640625 16.449219 C 35.167969 16.449219 34.710938 16.398438 34.269531 16.300781 Z M 34.269531 16.300781 " fill-opacity="1" fill-rule="nonzero"/><path fill="#000000" d="M 27.710938 27.433594 L 27.710938 17.855469 C 29.558594 19.183594 31.824219 19.964844 34.269531 19.964844 L 34.269531 16.300781 C 32.855469 16 31.613281 15.242188 30.695312 14.1875 C 29.21875 13.226562 28.152344 11.6875 27.820312 9.890625 L 24.367188 9.890625 L 24.363281 28.78125 C 24.28125 30.898438 22.542969 32.59375 20.40625 32.59375 C 19.082031 32.59375 17.914062 31.941406 17.195312 30.941406 C 15.933594 30.277344 15.070312 28.957031 15.070312 27.433594 C 15.070312 25.25 16.847656 23.472656 19.03125 23.472656 C 19.441406 23.472656 19.832031 23.539062 20.203125 23.65625 L 20.203125 19.960938 C 15.511719 20.070312 11.730469 23.914062 11.730469 28.632812 C 11.730469 30.910156 12.617188 32.988281 14.058594 34.539062 C 15.46875 35.527344 17.183594 36.109375 19.03125 36.109375 C 23.816406 36.109375 27.707031 32.21875 27.707031 27.433594 Z M 27.710938 27.433594 " fill-opacity="1" fill-rule="nonzero"/></svg>