<svg xmlns="http://www.w3.org/2000/svg" xmlns:xlink="http://www.w3.org/1999/xlink" width="400" zoomAndPan="magnify" viewBox="0 0 300 157.92" height="200" preserveAspectRatio="xMidYMid meet" version="1.0"><defs><g/><clipPath id="dde80cb5c9"><path d="M 0.0742188 16 L 299.921875 16 L 299.921875 129 L 0.0742188 129 Z M 0.0742188 16 " clip-rule="nonzero"/></clipPath><clipPath id="76ee7f666a"><path d="M 0.0742188 0.0703125 L 299.921875 0.0703125 L 299.921875 79 L 0.0742188 79 Z M 0.0742188 0.0703125 " clip-rule="nonzero"/></clipPath><clipPath id="64f088de5a"><rect x="0" width="300" y="0" height="79"/></clipPath><clipPath id="dca967e140"><path d="M 101 87 L 205 87 L 205 112.335938 L 101 112.335938 Z M 101 87 " clip-rule="nonzero"/></clipPath><clipPath id="aede92a2fc"><rect x="0" width="104" y="0" height="26"/></clipPath><clipPath id="00c178edc5"><rect x="0" width="300" y="0" height="113"/></clipPath></defs><g clip-path="url(#dde80cb5c9)"><g transform="matrix(1, 0, 0, 1, 0.000000000000000014, 16)"><g clip-path="url(#00c178edc5)"><g clip-path="url(#76ee7f666a)"><g transform="matrix(1, 0, 0, 1, 0.000000000000000014, 0.000000000000003553)"><g clip-path="url(#64f088de5a)"><g fill="#ffffff" fill-opacity="1"><g transform="translate(5.157832, 53.850713)"><g><path d="M 13.84375 2.148438 C 11.617188 2.148438 9.351562 1.875 7.050781 1.328125 C 4.726562 0.777344 2.777344 0.046875 1.203125 -0.863281 L 0.632812 -1.191406 L 0.988281 -10.851562 L 3.320312 -10.851562 L 5.429688 -6.429688 C 5.9375 -5.410156 6.484375 -4.507812 7.070312 -3.71875 C 7.574219 -3.039062 8.285156 -2.507812 9.191406 -2.117188 L 9.222656 -2.105469 L 9.25 -2.089844 C 9.941406 -1.746094 10.59375 -1.515625 11.214844 -1.398438 C 11.867188 -1.273438 12.609375 -1.210938 13.433594 -1.210938 C 15.523438 -1.210938 17.152344 -1.757812 18.324219 -2.847656 C 19.476562 -3.914062 20.050781 -5.300781 20.050781 -7.007812 C 20.050781 -8.644531 19.671875 -9.894531 18.917969 -10.757812 C 18.082031 -11.71875 16.695312 -12.671875 14.761719 -13.621094 L 15.246094 -14.601562 L 14.804688 -13.601562 L 12.410156 -14.652344 C 8.929688 -16.1875 6.199219 -17.972656 4.210938 -20 C 2.113281 -22.140625 1.066406 -24.957031 1.066406 -28.445312 C 1.066406 -30.976562 1.726562 -33.175781 3.050781 -35.039062 C 4.355469 -36.882812 6.167969 -38.292969 8.480469 -39.269531 C 10.742188 -40.222656 13.363281 -40.699219 16.355469 -40.699219 C 18.523438 -40.699219 20.585938 -40.410156 22.535156 -39.835938 C 24.496094 -39.257812 26.207031 -38.46875 27.664062 -37.46875 L 28.167969 -37.121094 L 27.734375 -28.460938 L 25.460938 -28.460938 L 22.742188 -33.433594 L 22.730469 -33.457031 C 22.136719 -34.683594 21.5625 -35.53125 21.019531 -35.996094 C 20.480469 -36.453125 19.863281 -36.777344 19.164062 -36.96875 L 19.144531 -36.972656 L 19.128906 -36.980469 C 18.679688 -37.117188 18.269531 -37.210938 17.902344 -37.261719 C 17.523438 -37.3125 17.027344 -37.339844 16.414062 -37.339844 C 14.695312 -37.339844 13.253906 -36.851562 12.097656 -35.875 C 10.992188 -34.945312 10.441406 -33.675781 10.441406 -32.066406 C 10.441406 -30.359375 10.875 -29.015625 11.742188 -28.035156 C 12.691406 -26.960938 14.109375 -25.988281 15.996094 -25.117188 L 15.539062 -24.125 L 15.972656 -25.128906 L 18.660156 -23.960938 C 22.546875 -22.257812 25.363281 -20.425781 27.105469 -18.453125 C 28.925781 -16.398438 29.832031 -13.769531 29.832031 -10.574219 C 29.832031 -6.804688 28.40625 -3.730469 25.554688 -1.347656 C 22.761719 0.980469 18.859375 2.148438 13.84375 2.148438 Z M 13.84375 -0.0429688 C 18.328125 -0.0429688 21.765625 -1.039062 24.152344 -3.03125 C 26.480469 -4.972656 27.644531 -7.488281 27.644531 -10.574219 C 27.644531 -13.214844 26.917969 -15.359375 25.464844 -17.003906 C 23.9375 -18.730469 21.378906 -20.382812 17.789062 -21.953125 L 15.089844 -23.125 L 15.078125 -23.128906 C 12.914062 -24.128906 11.257812 -25.277344 10.101562 -26.582031 C 8.867188 -27.976562 8.25 -29.804688 8.25 -32.066406 C 8.25 -34.355469 9.0625 -36.183594 10.683594 -37.550781 C 12.25 -38.871094 14.160156 -39.53125 16.414062 -39.53125 C 17.125 -39.53125 17.71875 -39.496094 18.199219 -39.433594 C 18.683594 -39.367188 19.210938 -39.246094 19.773438 -39.074219 L 19.453125 -38.027344 L 19.738281 -39.082031 C 20.753906 -38.804688 21.652344 -38.332031 22.441406 -37.660156 C 23.21875 -37 23.972656 -35.917969 24.699219 -34.414062 L 23.714844 -33.9375 L 24.675781 -34.460938 L 27.070312 -30.082031 L 26.109375 -29.554688 L 26.109375 -30.652344 L 26.695312 -30.652344 L 26.695312 -29.554688 L 25.601562 -29.609375 L 25.949219 -36.621094 L 27.042969 -36.566406 L 26.425781 -35.664062 C 25.15625 -36.53125 23.65625 -37.222656 21.917969 -37.734375 C 20.167969 -38.25 18.3125 -38.507812 16.355469 -38.507812 C 13.660156 -38.507812 11.320312 -38.089844 9.332031 -37.25 C 7.402344 -36.4375 5.902344 -35.277344 4.835938 -33.769531 C 3.78125 -32.285156 3.257812 -30.511719 3.257812 -28.445312 C 3.257812 -25.550781 4.097656 -23.246094 5.777344 -21.53125 C 7.566406 -19.703125 10.070312 -18.078125 13.289062 -16.65625 L 15.707031 -15.597656 L 15.726562 -15.585938 C 17.921875 -14.507812 19.539062 -13.378906 20.570312 -12.199219 C 21.683594 -10.921875 22.242188 -9.191406 22.242188 -7.007812 C 22.242188 -4.667969 21.433594 -2.742188 19.816406 -1.242188 C 18.222656 0.238281 16.097656 0.976562 13.433594 0.976562 C 12.46875 0.976562 11.59375 0.902344 10.808594 0.753906 C 9.988281 0.601562 9.140625 0.304688 8.273438 -0.128906 L 8.761719 -1.109375 L 8.332031 -0.101562 C 7.058594 -0.648438 6.054688 -1.417969 5.3125 -2.414062 C 4.652344 -3.300781 4.03125 -4.328125 3.449219 -5.488281 L 1.640625 -9.285156 L 2.628906 -9.753906 L 2.628906 -8.660156 L 2.042969 -8.660156 L 2.042969 -9.753906 L 3.140625 -9.714844 L 2.847656 -1.769531 L 1.753906 -1.8125 L 2.300781 -2.757812 C 3.6875 -1.957031 5.4375 -1.304688 7.554688 -0.804688 C 9.691406 -0.296875 11.789062 -0.0429688 13.84375 -0.0429688 Z M 13.84375 -0.0429688 "/></g></g></g><g fill="#ffffff" fill-opacity="1"><g transform="translate(44.93666, 53.850713)"><g><path d="M 8.761719 1.972656 C 7.058594 1.972656 5.613281 1.378906 4.425781 0.191406 C 3.238281 -0.996094 2.644531 -2.421875 2.644531 -4.089844 C 2.644531 -5.746094 3.230469 -7.1875 4.410156 -8.410156 C 5.597656 -9.648438 7.050781 -10.265625 8.761719 -10.265625 C 10.472656 -10.265625 11.925781 -9.648438 13.113281 -8.410156 C 14.292969 -7.1875 14.878906 -5.746094 14.878906 -4.089844 C 14.878906 -2.421875 14.285156 -0.996094 13.097656 0.191406 C 11.910156 1.378906 10.464844 1.972656 8.761719 1.972656 Z M 8.761719 -0.21875 C 9.859375 -0.21875 10.789062 -0.597656 11.550781 -1.359375 C 12.308594 -2.117188 12.691406 -3.027344 12.691406 -4.089844 C 12.691406 -5.15625 12.304688 -6.09375 11.535156 -6.894531 C 10.777344 -7.679688 9.851562 -8.074219 8.761719 -8.074219 C 7.671875 -8.074219 6.746094 -7.679688 5.988281 -6.894531 C 5.21875 -6.09375 4.832031 -5.15625 4.832031 -4.089844 C 4.832031 -3.027344 5.214844 -2.117188 5.972656 -1.359375 C 6.734375 -0.597656 7.664062 -0.21875 8.761719 -0.21875 Z M 8.761719 -0.21875 "/></g></g></g><g fill="#ffffff" fill-opacity="1"><g transform="translate(70.112349, 53.850713)"><g><path d="M 19.566406 2.148438 C 17.054688 2.148438 14.636719 1.695312 12.308594 0.785156 C 9.96875 -0.125 7.878906 -1.476562 6.039062 -3.277344 C 4.195312 -5.078125 2.738281 -7.316406 1.671875 -9.992188 C 0.605469 -12.652344 0.0742188 -15.746094 0.0742188 -19.277344 C 0.0742188 -22.765625 0.605469 -25.839844 1.671875 -28.503906 C 2.742188 -31.179688 4.207031 -33.417969 6.074219 -35.222656 C 7.929688 -37.015625 10.023438 -38.378906 12.359375 -39.304688 C 14.6875 -40.234375 17.089844 -40.699219 19.566406 -40.699219 C 22.078125 -40.699219 24.496094 -40.257812 26.820312 -39.371094 C 29.164062 -38.480469 31.253906 -37.132812 33.097656 -35.332031 C 34.941406 -33.53125 36.398438 -31.28125 37.46875 -28.585938 C 38.53125 -25.90625 39.0625 -22.804688 39.0625 -19.277344 C 39.0625 -15.828125 38.53125 -12.761719 37.46875 -10.082031 C 36.398438 -7.386719 34.941406 -5.136719 33.097656 -3.335938 C 31.257812 -1.539062 29.171875 -0.175781 26.835938 0.753906 C 24.507812 1.683594 22.082031 2.148438 19.566406 2.148438 Z M 19.566406 -0.0429688 C 21.804688 -0.0429688 23.957031 -0.457031 26.027344 -1.28125 C 28.089844 -2.101562 29.9375 -3.308594 31.566406 -4.902344 C 33.1875 -6.488281 34.476562 -8.484375 35.429688 -10.890625 C 36.390625 -13.308594 36.871094 -16.105469 36.871094 -19.277344 C 36.871094 -22.523438 36.390625 -25.359375 35.429688 -27.78125 C 34.476562 -30.1875 33.1875 -32.183594 31.566406 -33.765625 C 29.941406 -35.355469 28.101562 -36.539062 26.042969 -37.324219 C 23.96875 -38.113281 21.808594 -38.507812 19.566406 -38.507812 C 17.371094 -38.507812 15.238281 -38.097656 13.167969 -37.273438 C 11.101562 -36.449219 9.246094 -35.242188 7.59375 -33.644531 C 5.957031 -32.0625 4.660156 -30.074219 3.703125 -27.6875 C 2.742188 -25.289062 2.261719 -22.484375 2.261719 -19.277344 C 2.261719 -16.027344 2.742188 -13.203125 3.703125 -10.804688 C 4.660156 -8.417969 5.949219 -6.429688 7.570312 -4.84375 C 9.195312 -3.253906 11.039062 -2.058594 13.101562 -1.253906 C 15.175781 -0.449219 17.328125 -0.0429688 19.566406 -0.0429688 Z M 19.566406 -1.269531 C 21.4375 -1.269531 22.929688 -1.753906 24.050781 -2.726562 C 25.1875 -3.714844 26.035156 -5.484375 26.585938 -8.03125 C 27.175781 -10.738281 27.46875 -14.488281 27.46875 -19.277344 C 27.46875 -24.105469 27.175781 -27.871094 26.585938 -30.582031 C 26.035156 -33.128906 25.1875 -34.894531 24.050781 -35.882812 C 22.929688 -36.855469 21.4375 -37.339844 19.566406 -37.339844 C 17.738281 -37.339844 16.261719 -36.855469 15.144531 -35.882812 C 14.003906 -34.894531 13.160156 -33.128906 12.605469 -30.582031 C 12.019531 -27.871094 11.726562 -24.105469 11.726562 -19.277344 C 11.726562 -14.488281 12.019531 -10.738281 12.605469 -8.03125 C 13.160156 -5.484375 14.003906 -3.714844 15.144531 -2.726562 C 16.261719 -1.753906 17.738281 -1.269531 19.566406 -1.269531 Z M 19.566406 0.921875 C 17.191406 0.921875 15.238281 0.257812 13.710938 -1.070312 C 12.203125 -2.378906 11.121094 -4.542969 10.464844 -7.566406 C 9.847656 -10.425781 9.535156 -14.328125 9.535156 -19.277344 C 9.535156 -24.261719 9.847656 -28.183594 10.464844 -31.042969 C 11.121094 -34.066406 12.203125 -36.230469 13.710938 -37.539062 C 15.238281 -38.867188 17.191406 -39.53125 19.566406 -39.53125 C 21.980469 -39.53125 23.953125 -38.867188 25.484375 -37.539062 C 26.992188 -36.230469 28.074219 -34.066406 28.726562 -31.042969 C 29.347656 -28.183594 29.660156 -24.261719 29.660156 -19.277344 C 29.660156 -14.328125 29.347656 -10.425781 28.726562 -7.566406 C 28.074219 -4.542969 26.992188 -2.378906 25.484375 -1.070312 C 23.953125 0.257812 21.980469 0.921875 19.566406 0.921875 Z M 19.566406 0.921875 "/></g></g></g><g fill="#ffffff" fill-opacity="1"><g transform="translate(117.42634, 53.850713)"><g><path d="M 8.761719 1.972656 C 7.058594 1.972656 5.613281 1.378906 4.425781 0.191406 C 3.238281 -0.996094 2.644531 -2.421875 2.644531 -4.089844 C 2.644531 -5.746094 3.230469 -7.1875 4.410156 -8.410156 C 5.597656 -9.648438 7.050781 -10.265625 8.761719 -10.265625 C 10.472656 -10.265625 11.925781 -9.648438 13.113281 -8.410156 C 14.292969 -7.1875 14.878906 -5.746094 14.878906 -4.089844 C 14.878906 -2.421875 14.285156 -0.996094 13.097656 0.191406 C 11.910156 1.378906 10.464844 1.972656 8.761719 1.972656 Z M 8.761719 -0.21875 C 9.859375 -0.21875 10.789062 -0.597656 11.550781 -1.359375 C 12.308594 -2.117188 12.691406 -3.027344 12.691406 -4.089844 C 12.691406 -5.15625 12.304688 -6.09375 11.535156 -6.894531 C 10.777344 -7.679688 9.851562 -8.074219 8.761719 -8.074219 C 7.671875 -8.074219 6.746094 -7.679688 5.988281 -6.894531 C 5.21875 -6.09375 4.832031 -5.15625 4.832031 -4.089844 C 4.832031 -3.027344 5.214844 -2.117188 5.972656 -1.359375 C 6.734375 -0.597656 7.664062 -0.21875 8.761719 -0.21875 Z M 8.761719 -0.21875 "/></g></g></g><g fill="#ffffff" fill-opacity="1"><g transform="translate(145.113775, 53.850713)"><g><path d="M 0.0742188 0 L 0.0742188 -1.359375 L 1.988281 -2.03125 L 2 -2.035156 C 2.398438 -2.164062 2.695312 -2.390625 2.886719 -2.707031 C 3.113281 -3.089844 3.226562 -3.628906 3.226562 -4.324219 L 3.226562 -34.230469 C 3.226562 -34.875 3.164062 -35.371094 3.035156 -35.714844 C 2.96875 -35.886719 2.710938 -36.066406 2.261719 -36.257812 L 2.246094 -36.265625 L 0.0742188 -37.265625 L 0.0742188 -39.648438 L 13.195312 -39.648438 L 24.269531 -10.671875 L 23.246094 -10.28125 L 22.21875 -10.652344 L 32.640625 -39.648438 L 46.015625 -39.648438 L 46.015625 -37.207031 L 44.367188 -36.59375 C 43.878906 -36.410156 43.5625 -36.195312 43.421875 -35.941406 C 43.242188 -35.621094 43.152344 -35.167969 43.152344 -34.578125 L 43.152344 -4.03125 C 43.152344 -3.410156 43.214844 -2.957031 43.347656 -2.671875 C 43.421875 -2.503906 43.699219 -2.320312 44.175781 -2.121094 L 44.1875 -2.113281 L 46.015625 -1.292969 L 46.015625 1.09375 L 29.277344 1.09375 L 29.277344 -1.304688 L 31.167969 -2.117188 C 31.652344 -2.320312 31.929688 -2.503906 32.003906 -2.671875 C 32.136719 -2.957031 32.199219 -3.410156 32.199219 -4.03125 L 32.199219 -17.171875 L 32.316406 -33.886719 L 33.410156 -33.878906 L 34.441406 -33.507812 L 21.972656 1.09375 L 17.527344 1.09375 L 4.527344 -33.082031 L 5.550781 -33.46875 L 6.644531 -33.484375 L 6.820312 -18.9375 L 6.820312 -4.207031 C 6.820312 -3.515625 6.910156 -2.984375 7.089844 -2.605469 C 7.207031 -2.367188 7.484375 -2.175781 7.921875 -2.039062 L 9.972656 -1.386719 L 9.972656 1.09375 L 0.0742188 1.09375 Z M 2.261719 0 L 1.167969 0 L 1.167969 -1.09375 L 8.878906 -1.09375 L 8.878906 0 L 7.785156 0 L 7.785156 -0.585938 L 8.878906 -0.585938 L 8.546875 0.460938 L 7.265625 0.0507812 C 6.222656 -0.277344 5.507812 -0.847656 5.117188 -1.65625 C 4.792969 -2.332031 4.628906 -3.183594 4.628906 -4.207031 L 4.628906 -18.914062 L 4.453125 -33.457031 L 6.574219 -33.859375 L 19.304688 -0.390625 L 18.28125 0 L 18.28125 -1.09375 L 21.203125 -1.09375 L 21.203125 0 L 20.171875 -0.371094 L 32.382812 -34.25 L 34.507812 -33.871094 L 34.390625 -17.171875 L 34.390625 -4.03125 C 34.390625 -3.09375 34.261719 -2.339844 34 -1.765625 C 33.6875 -1.078125 33.03125 -0.523438 32.03125 -0.101562 L 30.804688 0.421875 L 30.375 -0.585938 L 31.46875 -0.585938 L 31.46875 0 L 30.375 0 L 30.375 -1.09375 L 44.917969 -1.09375 L 44.917969 0 L 43.824219 0 L 43.824219 -0.585938 L 44.917969 -0.585938 L 44.46875 0.414062 L 43.300781 -0.109375 L 43.75 -1.109375 L 43.324219 -0.101562 C 42.324219 -0.523438 41.664062 -1.078125 41.351562 -1.765625 C 41.089844 -2.339844 40.960938 -3.09375 40.960938 -4.03125 L 40.960938 -34.578125 C 40.960938 -35.550781 41.144531 -36.359375 41.511719 -37.011719 C 41.914062 -37.734375 42.609375 -38.277344 43.601562 -38.644531 L 44.535156 -38.992188 L 44.917969 -37.96875 L 43.824219 -37.96875 L 43.824219 -38.550781 L 44.917969 -38.550781 L 44.917969 -37.457031 L 33.410156 -37.457031 L 33.410156 -38.550781 L 34.441406 -38.179688 L 23.28125 -7.128906 L 11.417969 -38.160156 L 12.441406 -38.550781 L 12.441406 -37.457031 L 1.167969 -37.457031 L 1.167969 -38.550781 L 2.261719 -38.550781 L 2.261719 -37.96875 L 1.167969 -37.96875 L 1.628906 -38.960938 L 3.144531 -38.261719 L 2.6875 -37.265625 L 3.113281 -38.277344 C 4.140625 -37.84375 4.800781 -37.246094 5.085938 -36.484375 C 5.308594 -35.890625 5.417969 -35.140625 5.417969 -34.230469 L 5.417969 -4.324219 C 5.417969 -3.226562 5.199219 -2.3125 4.765625 -1.585938 C 4.292969 -0.792969 3.597656 -0.25 2.671875 0.0507812 L 2.335938 -0.992188 L 2.699219 0.0390625 L 1.53125 0.449219 L 1.167969 -0.585938 L 2.261719 -0.585938 Z M 2.261719 0 "/></g></g></g><g fill="#ffffff" fill-opacity="1"><g transform="translate(201.481697, 53.850713)"><g><path d="M 8.761719 1.972656 C 7.058594 1.972656 5.613281 1.378906 4.425781 0.191406 C 3.238281 -0.996094 2.644531 -2.421875 2.644531 -4.089844 C 2.644531 -5.746094 3.230469 -7.1875 4.410156 -8.410156 C 5.597656 -9.648438 7.050781 -10.265625 8.761719 -10.265625 C 10.472656 -10.265625 11.925781 -9.648438 13.113281 -8.410156 C 14.292969 -7.1875 14.878906 -5.746094 14.878906 -4.089844 C 14.878906 -2.421875 14.285156 -0.996094 13.097656 0.191406 C 11.910156 1.378906 10.464844 1.972656 8.761719 1.972656 Z M 8.761719 -0.21875 C 9.859375 -0.21875 10.789062 -0.597656 11.550781 -1.359375 C 12.308594 -2.117188 12.691406 -3.027344 12.691406 -4.089844 C 12.691406 -5.15625 12.304688 -6.09375 11.535156 -6.894531 C 10.777344 -7.679688 9.851562 -8.074219 8.761719 -8.074219 C 7.671875 -8.074219 6.746094 -7.679688 5.988281 -6.894531 C 5.21875 -6.09375 4.832031 -5.15625 4.832031 -4.089844 C 4.832031 -3.027344 5.214844 -2.117188 5.972656 -1.359375 C 6.734375 -0.597656 7.664062 -0.21875 8.761719 -0.21875 Z M 8.761719 -0.21875 "/></g></g></g><g fill="#ffffff" fill-opacity="1"><g transform="translate(229.169132, 53.850713)"><g><path d="M -0.628906 0 L -0.628906 -1.355469 L 1.554688 -2.140625 L 1.925781 -1.109375 L 1.519531 -2.125 C 2.152344 -2.378906 2.628906 -2.671875 2.945312 -3.007812 C 3.261719 -3.335938 3.53125 -3.832031 3.75 -4.492188 L 16.042969 -39.765625 L 22.570312 -39.765625 L 34.683594 -4.265625 C 34.941406 -3.550781 35.222656 -3.019531 35.523438 -2.675781 C 35.792969 -2.367188 36.25 -2.085938 36.898438 -1.839844 L 36.507812 -0.816406 L 36.855469 -1.855469 L 38.304688 -1.375 L 38.304688 1.09375 L 21.277344 1.09375 L 21.277344 -1.375 L 22.902344 -1.914062 L 23.246094 -0.875 L 22.859375 -1.898438 C 23.34375 -2.085938 23.621094 -2.289062 23.691406 -2.515625 C 23.800781 -2.867188 23.769531 -3.324219 23.601562 -3.890625 L 24.648438 -4.207031 L 23.609375 -3.867188 L 20.863281 -12.277344 L 21.90625 -12.617188 L 21.90625 -11.523438 L 8.9375 -11.523438 L 8.9375 -12.617188 L 9.972656 -12.265625 L 7.171875 -4.027344 C 6.957031 -3.363281 6.882812 -2.867188 6.945312 -2.542969 L 6.949219 -2.542969 C 6.960938 -2.523438 6.984375 -2.496094 7.015625 -2.46875 C 7.144531 -2.351562 7.351562 -2.242188 7.632812 -2.132812 L 7.644531 -2.128906 L 9.625 -1.320312 L 9.625 1.09375 L -0.628906 1.09375 Z M 1.5625 0 L 0.46875 0 L 0.46875 -1.09375 L 8.527344 -1.09375 L 8.527344 0 L 7.433594 0 L 7.433594 -0.585938 L 8.527344 -0.585938 L 8.113281 0.429688 L 6.828125 -0.0976562 L 7.242188 -1.109375 L 6.851562 -0.0859375 C 5.65625 -0.542969 4.96875 -1.222656 4.792969 -2.128906 C 4.664062 -2.816406 4.761719 -3.6875 5.097656 -4.734375 L 8.152344 -13.710938 L 22.699219 -13.710938 L 25.695312 -4.53125 L 25.699219 -4.519531 C 25.996094 -3.527344 26.023438 -2.644531 25.785156 -1.867188 C 25.503906 -0.960938 24.789062 -0.289062 23.636719 0.148438 L 23.617188 0.15625 L 22.71875 0.453125 L 22.371094 -0.585938 L 23.46875 -0.585938 L 23.46875 0 L 22.371094 0 L 22.371094 -1.09375 L 37.207031 -1.09375 L 37.207031 0 L 36.113281 0 L 36.113281 -0.585938 L 37.207031 -0.585938 L 36.863281 0.453125 L 36.140625 0.214844 L 36.117188 0.207031 C 35.128906 -0.171875 34.378906 -0.652344 33.871094 -1.238281 C 33.390625 -1.789062 32.972656 -2.5625 32.609375 -3.558594 L 20.75 -38.316406 L 21.789062 -38.667969 L 21.789062 -37.574219 L 16.824219 -37.574219 L 16.824219 -38.667969 L 17.855469 -38.308594 L 5.828125 -3.800781 C 5.503906 -2.828125 5.070312 -2.058594 4.53125 -1.492188 C 3.992188 -0.929688 3.261719 -0.464844 2.335938 -0.09375 L 2.316406 -0.0859375 L 0.839844 0.445312 L 0.46875 -0.585938 L 1.5625 -0.585938 Z M 9.347656 -14.878906 L 21.554688 -14.878906 L 21.554688 -13.785156 L 20.511719 -13.445312 L 14.613281 -31.613281 L 15.65625 -31.953125 L 16.6875 -31.59375 L 10.378906 -13.425781 L 9.347656 -13.785156 Z M 7.804688 -12.691406 L 15.6875 -35.390625 L 23.0625 -12.691406 Z M 7.804688 -12.691406 "/></g></g></g><g fill="#ffffff" fill-opacity="1"><g transform="translate(277.300887, 53.850713)"><g><path d="M 8.761719 1.972656 C 7.058594 1.972656 5.613281 1.378906 4.425781 0.191406 C 3.238281 -0.996094 2.644531 -2.421875 2.644531 -4.089844 C 2.644531 -5.746094 3.230469 -7.1875 4.410156 -8.410156 C 5.597656 -9.648438 7.050781 -10.265625 8.761719 -10.265625 C 10.472656 -10.265625 11.925781 -9.648438 13.113281 -8.410156 C 14.292969 -7.1875 14.878906 -5.746094 14.878906 -4.089844 C 14.878906 -2.421875 14.285156 -0.996094 13.097656 0.191406 C 11.910156 1.378906 10.464844 1.972656 8.761719 1.972656 Z M 8.761719 -0.21875 C 9.859375 -0.21875 10.789062 -0.597656 11.550781 -1.359375 C 12.308594 -2.117188 12.691406 -3.027344 12.691406 -4.089844 C 12.691406 -5.15625 12.304688 -6.09375 11.535156 -6.894531 C 10.777344 -7.679688 9.851562 -8.074219 8.761719 -8.074219 C 7.671875 -8.074219 6.746094 -7.679688 5.988281 -6.894531 C 5.21875 -6.09375 4.832031 -5.15625 4.832031 -4.089844 C 4.832031 -3.027344 5.214844 -2.117188 5.972656 -1.359375 C 6.734375 -0.597656 7.664062 -0.21875 8.761719 -0.21875 Z M 8.761719 -0.21875 "/></g></g></g></g></g></g><g clip-path="url(#dca967e140)"><g transform="matrix(1, 0, 0, 1, 101, 87)"><g clip-path="url(#aede92a2fc)"><g fill="#ffffff" fill-opacity="1"><g transform="translate(0.975955, 20.233137)"><g><path d="M 6.515625 0.15625 C 5.960938 0.15625 5.332031 0.113281 4.625 0.03125 C 3.925781 -0.0507812 3.234375 -0.171875 2.546875 -0.328125 C 1.867188 -0.484375 1.265625 -0.65625 0.734375 -0.84375 C 0.515625 -0.914062 0.40625 -1.109375 0.40625 -1.421875 C 0.40625 -1.847656 0.40625 -2.269531 0.40625 -2.6875 C 0.414062 -3.113281 0.429688 -3.539062 0.453125 -3.96875 C 0.453125 -4.238281 0.539062 -4.40625 0.71875 -4.46875 C 0.90625 -4.539062 1.066406 -4.484375 1.203125 -4.296875 C 1.859375 -3.597656 2.640625 -3.09375 3.546875 -2.78125 C 4.460938 -2.46875 5.421875 -2.3125 6.421875 -2.3125 C 7.273438 -2.3125 7.957031 -2.4375 8.46875 -2.6875 C 8.988281 -2.945312 9.25 -3.320312 9.25 -3.8125 C 9.25 -4.1875 9.09375 -4.503906 8.78125 -4.765625 C 8.476562 -5.023438 8.070312 -5.253906 7.5625 -5.453125 C 7.0625 -5.660156 6.507812 -5.851562 5.90625 -6.03125 C 5.300781 -6.21875 4.703125 -6.414062 4.109375 -6.625 C 3.515625 -6.84375 2.960938 -7.109375 2.453125 -7.421875 C 1.941406 -7.734375 1.535156 -8.113281 1.234375 -8.5625 C 0.929688 -9.007812 0.78125 -9.550781 0.78125 -10.1875 C 0.78125 -11 1.03125 -11.671875 1.53125 -12.203125 C 2.039062 -12.734375 2.726562 -13.128906 3.59375 -13.390625 C 4.46875 -13.648438 5.441406 -13.78125 6.515625 -13.78125 C 7.253906 -13.78125 8.023438 -13.707031 8.828125 -13.5625 C 9.640625 -13.425781 10.359375 -13.222656 10.984375 -12.953125 C 11.210938 -12.816406 11.328125 -12.625 11.328125 -12.375 L 11.328125 -10.203125 C 11.328125 -9.953125 11.238281 -9.785156 11.0625 -9.703125 C 10.894531 -9.617188 10.738281 -9.660156 10.59375 -9.828125 C 10.039062 -10.328125 9.421875 -10.703125 8.734375 -10.953125 C 8.046875 -11.203125 7.351562 -11.328125 6.65625 -11.328125 C 6.175781 -11.328125 5.71875 -11.273438 5.28125 -11.171875 C 4.851562 -11.078125 4.5 -10.929688 4.21875 -10.734375 C 3.945312 -10.546875 3.8125 -10.296875 3.8125 -9.984375 C 3.8125 -9.640625 3.96875 -9.34375 4.28125 -9.09375 C 4.59375 -8.84375 5 -8.617188 5.5 -8.421875 C 6.007812 -8.234375 6.566406 -8.039062 7.171875 -7.84375 C 7.785156 -7.644531 8.394531 -7.429688 9 -7.203125 C 9.601562 -6.984375 10.15625 -6.710938 10.65625 -6.390625 C 11.164062 -6.078125 11.578125 -5.695312 11.890625 -5.25 C 12.203125 -4.8125 12.359375 -4.28125 12.359375 -3.65625 C 12.359375 -2.46875 11.835938 -1.535156 10.796875 -0.859375 C 9.765625 -0.179688 8.335938 0.15625 6.515625 0.15625 Z M 6.515625 0.15625 "/></g></g></g><g fill="#ffffff" fill-opacity="1"><g transform="translate(18.48049, 20.233137)"><g><path d="M 6.09375 0.078125 C 5.988281 0.078125 5.789062 0.0664062 5.5 0.046875 C 5.207031 0.0234375 4.984375 0.0078125 4.828125 0 C 4.703125 -0.0195312 4.585938 -0.078125 4.484375 -0.171875 C 4.378906 -0.265625 4.332031 -0.375 4.34375 -0.5 C 4.351562 -0.90625 4.375 -1.421875 4.40625 -2.046875 C 4.4375 -2.671875 4.46875 -3.34375 4.5 -4.0625 C 4.539062 -4.789062 4.578125 -5.523438 4.609375 -6.265625 C 4.640625 -7.003906 4.671875 -7.691406 4.703125 -8.328125 C 4.734375 -8.960938 4.753906 -9.503906 4.765625 -9.953125 C 4.796875 -10.828125 4.503906 -11.265625 3.890625 -11.265625 C 3.335938 -11.265625 2.785156 -11.125 2.234375 -10.84375 C 1.691406 -10.5625 1.285156 -10.191406 1.015625 -9.734375 C 0.878906 -9.523438 0.710938 -9.425781 0.515625 -9.4375 C 0.328125 -9.457031 0.234375 -9.609375 0.234375 -9.890625 C 0.234375 -10.066406 0.234375 -10.304688 0.234375 -10.609375 C 0.242188 -10.910156 0.253906 -11.222656 0.265625 -11.546875 C 0.285156 -11.878906 0.296875 -12.1875 0.296875 -12.46875 C 0.304688 -12.757812 0.316406 -12.984375 0.328125 -13.140625 C 0.359375 -13.304688 0.414062 -13.425781 0.5 -13.5 C 0.59375 -13.570312 0.695312 -13.613281 0.8125 -13.625 C 1.21875 -13.664062 1.726562 -13.6875 2.34375 -13.6875 C 2.957031 -13.695312 3.59375 -13.703125 4.25 -13.703125 C 4.914062 -13.703125 5.507812 -13.703125 6.03125 -13.703125 C 6.382812 -13.703125 6.796875 -13.703125 7.265625 -13.703125 C 7.742188 -13.703125 8.226562 -13.695312 8.71875 -13.6875 C 9.21875 -13.6875 9.691406 -13.679688 10.140625 -13.671875 C 10.585938 -13.671875 10.953125 -13.65625 11.234375 -13.625 C 11.535156 -13.601562 11.703125 -13.441406 11.734375 -13.140625 C 11.753906 -12.984375 11.769531 -12.757812 11.78125 -12.46875 C 11.789062 -12.1875 11.796875 -11.875 11.796875 -11.53125 C 11.804688 -11.195312 11.816406 -10.878906 11.828125 -10.578125 C 11.835938 -10.285156 11.84375 -10.054688 11.84375 -9.890625 C 11.84375 -9.609375 11.742188 -9.457031 11.546875 -9.4375 C 11.347656 -9.425781 11.1875 -9.523438 11.0625 -9.734375 C 10.800781 -10.191406 10.429688 -10.5625 9.953125 -10.84375 C 9.472656 -11.125 8.898438 -11.265625 8.234375 -11.265625 C 7.617188 -11.265625 7.328125 -10.828125 7.359375 -9.953125 C 7.367188 -9.523438 7.390625 -8.988281 7.421875 -8.34375 C 7.453125 -7.707031 7.488281 -7.019531 7.53125 -6.28125 C 7.570312 -5.539062 7.609375 -4.804688 7.640625 -4.078125 C 7.671875 -3.347656 7.707031 -2.671875 7.75 -2.046875 C 7.789062 -1.421875 7.816406 -0.90625 7.828125 -0.5 C 7.828125 -0.375 7.773438 -0.257812 7.671875 -0.15625 C 7.566406 -0.0625 7.441406 -0.00390625 7.296875 0.015625 C 7.140625 0.0234375 6.925781 0.0351562 6.65625 0.046875 C 6.382812 0.0664062 6.195312 0.078125 6.09375 0.078125 Z M 6.09375 0.078125 "/></g></g></g><g fill="#ffffff" fill-opacity="1"><g transform="translate(36.082352, 20.233137)"><g><path d="M 6.25 0.15625 C 4.351562 0.15625 2.90625 -0.289062 1.90625 -1.1875 C 0.90625 -2.082031 0.410156 -3.40625 0.421875 -5.15625 C 0.421875 -6.050781 0.4375 -6.988281 0.46875 -7.96875 C 0.507812 -8.945312 0.554688 -9.890625 0.609375 -10.796875 C 0.671875 -11.703125 0.726562 -12.484375 0.78125 -13.140625 C 0.820312 -13.398438 0.976562 -13.5625 1.25 -13.625 C 1.382812 -13.65625 1.566406 -13.675781 1.796875 -13.6875 C 2.035156 -13.695312 2.226562 -13.703125 2.375 -13.703125 C 2.5 -13.703125 2.691406 -13.695312 2.953125 -13.6875 C 3.210938 -13.675781 3.410156 -13.65625 3.546875 -13.625 C 3.660156 -13.613281 3.769531 -13.554688 3.875 -13.453125 C 3.976562 -13.359375 4.015625 -13.222656 3.984375 -13.046875 C 3.867188 -12.347656 3.769531 -11.570312 3.6875 -10.71875 C 3.601562 -9.863281 3.546875 -8.992188 3.515625 -8.109375 C 3.484375 -7.234375 3.472656 -6.382812 3.484375 -5.5625 C 3.515625 -4.550781 3.757812 -3.753906 4.21875 -3.171875 C 4.675781 -2.585938 5.351562 -2.296875 6.25 -2.296875 C 7.15625 -2.296875 7.835938 -2.597656 8.296875 -3.203125 C 8.765625 -3.804688 9.003906 -4.59375 9.015625 -5.5625 C 9.035156 -6.382812 9.023438 -7.234375 8.984375 -8.109375 C 8.941406 -8.984375 8.878906 -9.84375 8.796875 -10.6875 C 8.722656 -11.53125 8.628906 -12.316406 8.515625 -13.046875 C 8.484375 -13.222656 8.515625 -13.359375 8.609375 -13.453125 C 8.710938 -13.554688 8.820312 -13.613281 8.9375 -13.625 C 9.082031 -13.65625 9.28125 -13.675781 9.53125 -13.6875 C 9.789062 -13.695312 9.988281 -13.703125 10.125 -13.703125 C 10.25 -13.703125 10.429688 -13.695312 10.671875 -13.6875 C 10.910156 -13.675781 11.101562 -13.65625 11.25 -13.625 C 11.519531 -13.5625 11.675781 -13.398438 11.71875 -13.140625 C 11.800781 -12.484375 11.867188 -11.703125 11.921875 -10.796875 C 11.972656 -9.890625 12.007812 -8.945312 12.03125 -7.96875 C 12.0625 -6.988281 12.078125 -6.050781 12.078125 -5.15625 C 12.078125 -3.40625 11.578125 -2.082031 10.578125 -1.1875 C 9.585938 -0.289062 8.144531 0.15625 6.25 0.15625 Z M 6.25 0.15625 "/></g></g></g><g fill="#ffffff" fill-opacity="1"><g transform="translate(54.190454, 20.233137)"><g><path d="M 6.625 0.15625 C 6.195312 0.15625 5.703125 0.144531 5.140625 0.125 C 4.578125 0.113281 4.015625 0.101562 3.453125 0.09375 C 2.898438 0.0820312 2.398438 0.0664062 1.953125 0.046875 C 1.515625 0.0234375 1.203125 0.0078125 1.015625 0 C 0.878906 -0.0078125 0.765625 -0.0625 0.671875 -0.15625 C 0.585938 -0.257812 0.546875 -0.375 0.546875 -0.5 C 0.546875 -1.625 0.554688 -2.769531 0.578125 -3.9375 C 0.609375 -5.101562 0.640625 -6.25 0.671875 -7.375 C 0.710938 -8.507812 0.753906 -9.566406 0.796875 -10.546875 C 0.835938 -11.535156 0.878906 -12.398438 0.921875 -13.140625 C 0.921875 -13.273438 0.960938 -13.382812 1.046875 -13.46875 C 1.140625 -13.5625 1.25 -13.613281 1.375 -13.625 C 1.726562 -13.65625 2.164062 -13.675781 2.6875 -13.6875 C 3.21875 -13.695312 3.757812 -13.703125 4.3125 -13.703125 C 4.863281 -13.703125 5.347656 -13.703125 5.765625 -13.703125 C 7.179688 -13.703125 8.429688 -13.40625 9.515625 -12.8125 C 10.597656 -12.21875 11.445312 -11.347656 12.0625 -10.203125 C 12.675781 -9.054688 12.984375 -7.675781 12.984375 -6.0625 C 12.984375 -3.925781 12.414062 -2.351562 11.28125 -1.34375 C 10.15625 -0.34375 8.601562 0.15625 6.625 0.15625 Z M 4.765625 -2.640625 C 5.023438 -2.628906 5.296875 -2.617188 5.578125 -2.609375 C 5.867188 -2.609375 6.148438 -2.609375 6.421875 -2.609375 C 7.097656 -2.617188 7.703125 -2.742188 8.234375 -2.984375 C 8.773438 -3.222656 9.203125 -3.601562 9.515625 -4.125 C 9.835938 -4.65625 10 -5.347656 10 -6.203125 C 10 -7.203125 9.828125 -8.066406 9.484375 -8.796875 C 9.140625 -9.523438 8.660156 -10.09375 8.046875 -10.5 C 7.441406 -10.90625 6.726562 -11.117188 5.90625 -11.140625 C 5.59375 -11.140625 5.347656 -11.132812 5.171875 -11.125 C 4.992188 -11.113281 4.789062 -11.101562 4.5625 -11.09375 C 4.25 -11.082031 4.007812 -10.957031 3.84375 -10.71875 C 3.6875 -10.488281 3.597656 -10.207031 3.578125 -9.875 C 3.546875 -8.925781 3.53125 -7.976562 3.53125 -7.03125 C 3.539062 -6.082031 3.554688 -5.128906 3.578125 -4.171875 C 3.597656 -3.691406 3.695312 -3.320312 3.875 -3.0625 C 4.050781 -2.8125 4.347656 -2.671875 4.765625 -2.640625 Z M 4.765625 -2.640625 "/></g></g></g><g fill="#ffffff" fill-opacity="1"><g transform="translate(73.174766, 20.233137)"><g><path d="M 2.15625 0.078125 C 2.03125 0.078125 1.851562 0.0664062 1.625 0.046875 C 1.394531 0.0351562 1.191406 0.0195312 1.015625 0 C 0.878906 -0.0195312 0.765625 -0.078125 0.671875 -0.171875 C 0.578125 -0.265625 0.53125 -0.390625 0.53125 -0.546875 C 0.53125 -1.671875 0.535156 -2.820312 0.546875 -4 C 0.566406 -5.175781 0.585938 -6.320312 0.609375 -7.4375 C 0.640625 -8.5625 0.671875 -9.609375 0.703125 -10.578125 C 0.742188 -11.554688 0.773438 -12.410156 0.796875 -13.140625 C 0.804688 -13.398438 0.96875 -13.5625 1.28125 -13.625 C 1.425781 -13.65625 1.585938 -13.675781 1.765625 -13.6875 C 1.953125 -13.695312 2.097656 -13.703125 2.203125 -13.703125 C 2.304688 -13.703125 2.4375 -13.695312 2.59375 -13.6875 C 2.757812 -13.675781 2.898438 -13.65625 3.015625 -13.625 C 3.304688 -13.5625 3.460938 -13.398438 3.484375 -13.140625 C 3.515625 -12.410156 3.546875 -11.554688 3.578125 -10.578125 C 3.609375 -9.609375 3.640625 -8.5625 3.671875 -7.4375 C 3.703125 -6.320312 3.726562 -5.175781 3.75 -4 C 3.769531 -2.820312 3.78125 -1.671875 3.78125 -0.546875 C 3.78125 -0.390625 3.726562 -0.257812 3.625 -0.15625 C 3.53125 -0.0625 3.421875 -0.00390625 3.296875 0.015625 C 3.117188 0.0234375 2.921875 0.0351562 2.703125 0.046875 C 2.484375 0.0664062 2.300781 0.078125 2.15625 0.078125 Z M 2.15625 0.078125 "/></g></g></g><g fill="#ffffff" fill-opacity="1"><g transform="translate(83.085517, 20.233137)"><g><path d="M 6.953125 0.15625 C 5.660156 0.15625 4.519531 -0.0625 3.53125 -0.5 C 2.539062 -0.9375 1.765625 -1.625 1.203125 -2.5625 C 0.648438 -3.507812 0.375 -4.75 0.375 -6.28125 C 0.375 -7.8125 0.648438 -9.132812 1.203125 -10.25 C 1.753906 -11.375 2.523438 -12.242188 3.515625 -12.859375 C 4.503906 -13.472656 5.648438 -13.78125 6.953125 -13.78125 C 8.265625 -13.78125 9.414062 -13.472656 10.40625 -12.859375 C 11.394531 -12.242188 12.164062 -11.375 12.71875 -10.25 C 13.269531 -9.132812 13.546875 -7.8125 13.546875 -6.28125 C 13.546875 -4.75 13.265625 -3.507812 12.703125 -2.5625 C 12.148438 -1.625 11.375 -0.9375 10.375 -0.5 C 9.382812 -0.0625 8.242188 0.15625 6.953125 0.15625 Z M 6.96875 -2.421875 C 7.632812 -2.421875 8.234375 -2.546875 8.765625 -2.796875 C 9.296875 -3.054688 9.71875 -3.484375 10.03125 -4.078125 C 10.34375 -4.671875 10.5 -5.457031 10.5 -6.4375 C 10.5 -7.40625 10.34375 -8.242188 10.03125 -8.953125 C 9.726562 -9.671875 9.3125 -10.226562 8.78125 -10.625 C 8.257812 -11.019531 7.65625 -11.21875 6.96875 -11.21875 C 6.28125 -11.21875 5.671875 -11.019531 5.140625 -10.625 C 4.609375 -10.226562 4.191406 -9.671875 3.890625 -8.953125 C 3.597656 -8.242188 3.453125 -7.40625 3.453125 -6.4375 C 3.453125 -5.457031 3.601562 -4.671875 3.90625 -4.078125 C 4.21875 -3.484375 4.640625 -3.054688 5.171875 -2.796875 C 5.710938 -2.546875 6.3125 -2.421875 6.96875 -2.421875 Z M 6.96875 -2.421875 "/></g></g></g></g></g></g></g></g></g></svg>